<svg width="181" height="42" viewBox="0 0 181 42" fill="none" xmlns="http://www.w3.org/2000/svg">
<path opacity="0.5" d="M40.0652 2.25671L30.2601 36.9917C30.2102 37.1494 30.0108 37.1967 29.8945 37.0863L23.3301 30.8583L28.2492 13.4514C28.2991 13.2937 28.1495 13.1518 27.9833 13.1991L9.63617 17.8662L3.10498 11.6697C2.98865 11.5593 3.03851 11.3701 3.20469 11.3228L39.7993 2.00444C39.9655 1.97291 40.115 2.11481 40.0652 2.25671Z" fill="#00B37E"/>
<path opacity="0.5" d="M23.3297 30.858L20.8037 39.8452C20.7538 40.0029 20.5544 40.0502 20.4381 39.9398L0.0634003 20.6251C-0.0529313 20.5147 -0.00307518 20.3255 0.163113 20.2782L9.63583 17.8658L23.3297 30.858Z" fill="#00B37E"/>
<path d="M19.4622 9.38471L28.2923 25.1716L9.42248 25.6679L19.0958 9.39434C19.1798 9.24339 19.3859 9.23796 19.4622 9.38471Z" fill="#00B37E"/>
<path d="M69.8953 26.5767V29.5H60.2134V26.5767H69.8953ZM61.4377 11.3104V29.5H57.6898V11.3104H61.4377ZM68.6335 18.7187V21.5671H60.2134V18.7187H68.6335ZM69.8828 11.3104V14.2462H60.2134V11.3104H69.8828ZM75.1673 11.3104L78.5903 17.6568L82.0134 11.3104H86.2984L81.0139 20.3303L86.4358 29.5H82.1133L78.5903 23.0287L75.0674 29.5H70.7198L76.1542 20.3303L70.8573 11.3104H75.1673ZM102.152 11.3104V29.5H98.4165V11.3104H102.152ZM107.749 11.3104V14.2462H92.9071V11.3104H107.749ZM112.383 18.9311V29.5H108.786V15.9828H112.171L112.383 18.9311ZM116.456 15.8953L116.394 19.2309C116.219 19.2059 116.006 19.1851 115.757 19.1684C115.515 19.1434 115.294 19.1309 115.094 19.1309C114.586 19.1309 114.145 19.1976 113.77 19.3308C113.404 19.4558 113.096 19.6432 112.846 19.893C112.604 20.1429 112.421 20.4469 112.296 20.805C112.179 21.1631 112.113 21.5712 112.096 22.0293L111.372 21.8044C111.372 20.9299 111.459 20.1262 111.634 19.3933C111.809 18.6521 112.063 18.0066 112.396 17.4569C112.737 16.9072 113.154 16.4825 113.645 16.1826C114.137 15.8828 114.699 15.7329 115.332 15.7329C115.532 15.7329 115.736 15.7496 115.944 15.7829C116.152 15.8079 116.323 15.8453 116.456 15.8953ZM125.026 26.4517V20.4302C125.026 19.9971 124.955 19.6265 124.814 19.3183C124.672 19.0019 124.452 18.7562 124.152 18.5813C123.86 18.4064 123.481 18.3189 123.015 18.3189C122.615 18.3189 122.269 18.3897 121.978 18.5313C121.686 18.6645 121.462 18.8603 121.303 19.1185C121.145 19.3683 121.066 19.664 121.066 20.0054H117.468C117.468 19.4308 117.601 18.8853 117.868 18.3689C118.134 17.8525 118.522 17.3986 119.03 17.0072C119.538 16.6074 120.141 16.2951 120.841 16.0702C121.549 15.8453 122.34 15.7329 123.215 15.7329C124.264 15.7329 125.197 15.9078 126.013 16.2576C126.829 16.6074 127.471 17.1321 127.937 17.8317C128.412 18.5313 128.649 19.4058 128.649 20.4552V26.2394C128.649 26.9806 128.695 27.5886 128.787 28.0633C128.878 28.5297 129.011 28.9378 129.186 29.2876V29.5H125.551C125.376 29.1335 125.243 28.6755 125.151 28.1258C125.068 27.5678 125.026 27.0098 125.026 26.4517ZM125.501 21.2672L125.526 23.3036H123.515C123.04 23.3036 122.628 23.3577 122.278 23.466C121.928 23.5742 121.641 23.7283 121.416 23.9282C121.191 24.1198 121.024 24.3446 120.916 24.6028C120.816 24.861 120.766 25.1442 120.766 25.4523C120.766 25.7605 120.837 26.0395 120.979 26.2893C121.12 26.5309 121.324 26.7224 121.591 26.864C121.857 26.9973 122.17 27.0639 122.528 27.0639C123.069 27.0639 123.54 26.9556 123.939 26.7391C124.339 26.5225 124.647 26.256 124.864 25.9395C125.089 25.6231 125.205 25.3232 125.214 25.0401L126.163 26.5642C126.03 26.9057 125.847 27.2596 125.613 27.6261C125.388 27.9925 125.101 28.3382 124.751 28.663C124.402 28.9795 123.981 29.2418 123.49 29.45C122.998 29.6499 122.415 29.7499 121.741 29.7499C120.883 29.7499 120.104 29.5791 119.404 29.2377C118.713 28.8879 118.163 28.409 117.755 27.801C117.356 27.1847 117.156 26.4851 117.156 25.7022C117.156 24.9943 117.289 24.3654 117.555 23.8158C117.822 23.2661 118.213 22.8038 118.73 22.4291C119.255 22.0459 119.908 21.7586 120.691 21.5671C121.474 21.3672 122.382 21.2672 123.415 21.2672H125.501ZM137.007 26.939C137.448 26.939 137.84 26.8557 138.181 26.6891C138.523 26.5142 138.789 26.2727 138.981 25.9645C139.181 25.648 139.285 25.2774 139.293 24.8527H142.679C142.67 25.8021 142.416 26.6475 141.917 27.3887C141.417 28.1216 140.746 28.7005 139.905 29.1252C139.064 29.5416 138.123 29.7499 137.082 29.7499C136.032 29.7499 135.116 29.575 134.333 29.2252C133.559 28.8754 132.913 28.3923 132.397 27.776C131.881 27.1513 131.493 26.4268 131.235 25.6022C130.977 24.7694 130.848 23.8782 130.848 22.9288V22.5665C130.848 21.6087 130.977 20.7175 131.235 19.893C131.493 19.0602 131.881 18.3356 132.397 17.7193C132.913 17.0946 133.559 16.6074 134.333 16.2576C135.108 15.9078 136.016 15.7329 137.057 15.7329C138.164 15.7329 139.135 15.9453 139.968 16.37C140.809 16.7948 141.467 17.4028 141.941 18.194C142.425 18.9769 142.67 19.9055 142.679 20.9799H139.293C139.285 20.5301 139.189 20.122 139.006 19.7556C138.831 19.3891 138.573 19.0976 138.231 18.8811C137.898 18.6562 137.486 18.5438 136.994 18.5438C136.47 18.5438 136.041 18.6562 135.708 18.8811C135.374 19.0976 135.116 19.3975 134.933 19.7806C134.75 20.1554 134.621 20.5843 134.546 21.0673C134.479 21.5421 134.446 22.0418 134.446 22.5665V22.9288C134.446 23.4535 134.479 23.9573 134.546 24.4404C134.612 24.9235 134.737 25.3524 134.921 25.7272C135.112 26.1019 135.374 26.3976 135.708 26.6142C136.041 26.8307 136.474 26.939 137.007 26.939ZM148.363 10.2985V29.5H144.765V10.2985H148.363ZM156.883 15.9828L151.011 22.6789L147.863 25.8646L146.551 23.2661L149.05 20.0929L152.56 15.9828H156.883ZM153.148 29.5L149.15 23.2536L151.636 21.0798L157.295 29.5H153.148ZM164.404 29.7499C163.354 29.7499 162.413 29.5833 161.58 29.2501C160.747 28.9087 160.039 28.4381 159.456 27.8385C158.882 27.2388 158.44 26.5434 158.132 25.7521C157.824 24.9526 157.67 24.1031 157.67 23.2036V22.7039C157.67 21.6795 157.816 20.7425 158.107 19.893C158.399 19.0435 158.815 18.3064 159.357 17.6818C159.906 17.0571 160.572 16.5782 161.355 16.2451C162.138 15.9036 163.021 15.7329 164.004 15.7329C164.962 15.7329 165.811 15.8911 166.552 16.2076C167.294 16.5241 167.914 16.9739 168.414 17.5569C168.922 18.1398 169.305 18.8394 169.563 19.6556C169.821 20.4635 169.95 21.363 169.95 22.3541V23.8532H159.207V21.4546H166.415V21.1798C166.415 20.6801 166.323 20.2345 166.14 19.843C165.965 19.4433 165.699 19.1268 165.341 18.8936C164.982 18.6604 164.524 18.5438 163.966 18.5438C163.492 18.5438 163.084 18.6479 162.742 18.8561C162.401 19.0643 162.122 19.3558 161.905 19.7306C161.697 20.1054 161.539 20.5468 161.43 21.0548C161.33 21.5546 161.28 22.1042 161.28 22.7039V23.2036C161.28 23.745 161.355 24.2447 161.505 24.7028C161.664 25.1608 161.884 25.5564 162.167 25.8896C162.459 26.2227 162.809 26.4809 163.217 26.6641C163.633 26.8474 164.104 26.939 164.628 26.939C165.278 26.939 165.882 26.814 166.44 26.5642C167.006 26.306 167.494 25.9187 167.902 25.4024L169.651 27.3013C169.367 27.7094 168.98 28.1008 168.489 28.4756C168.006 28.8504 167.423 29.1585 166.74 29.4001C166.057 29.6333 165.278 29.7499 164.404 29.7499ZM175.597 18.9311V29.5H171.999V15.9828H175.385L175.597 18.9311ZM179.67 15.8953L179.607 19.2309C179.432 19.2059 179.22 19.1851 178.97 19.1684C178.729 19.1434 178.508 19.1309 178.308 19.1309C177.8 19.1309 177.359 19.1976 176.984 19.3308C176.617 19.4558 176.309 19.6432 176.059 19.893C175.818 20.1429 175.635 20.4469 175.51 20.805C175.393 21.1631 175.327 21.5712 175.31 22.0293L174.585 21.8044C174.585 20.9299 174.673 20.1262 174.848 19.3933C175.023 18.6521 175.277 18.0066 175.61 17.4569C175.951 16.9072 176.368 16.4825 176.859 16.1826C177.35 15.8828 177.913 15.7329 178.546 15.7329C178.745 15.7329 178.949 15.7496 179.158 15.7829C179.366 15.8079 179.537 15.8453 179.67 15.8953Z" fill="#E1E1E6"/>
</svg>
